PathFileType	4	(X/Y/Z)	OpenSim_Sub07_EMGStiffKnee_Accel.trc
DataRate	CameraRate	NumFrames	NumMarkers	Units	OrigDataRate	OrigDataStartFrame	OrigNumFrames
100	100	27	8	m	100	3695	7388
Frame#	Time	torso_imu_offset_imu	pelvis_imu_offset_imu	tibia_r_imu_offset_imu	femur_r_imu_offset_imu	tibia_l_imu_offset_imu	femur_l_imu_offset_imu	toes_r_imu_offset_imu	toes_l_imu_offset_imu
				X1	Y1	Z1	X2	Y2	Z2	X3	Y3	Z3	X4	Y4	Z4	X5	Y5	Z5	X6	Y6	Z6	X7	Y7	Z7	X8		Y8	Z8	

3695	36.94000000	-7.40680811	0.94511563	5.09052727	7.51807177	0.92235528	4.05455674	9.64009608	0.09955636	-0.15468234	8.86926595	0.38509298	0.03042990	7.87528591	2.99091161	2.73877788	8.31505897	-0.16354705	0.00489582	5.06225265	1.15106899	8.48975741	0.95327528	4.77335405	11.53760678
3696	36.95000000	-7.34666663	1.10445674	5.10927953	7.45667171	1.05313934	4.04936045	9.83726641	-0.08899128	-0.36014164	8.77967915	-0.28022293	-0.10072406	9.00918098	0.63301949	1.33649109	8.25258644	0.22384271	0.03269693	5.17850632	0.94208994	8.45935727	1.99237834	3.03346799	11.98021279
3697	36.96000000	-7.35623863	1.27625491	5.12747281	7.39076495	1.24119009	3.96686883	9.64585755	0.37845105	-0.48364777	8.67985760	-0.70232503	-0.29693023	9.99761726	-1.18415878	0.41140092	8.02556461	0.53260153	0.08060508	5.33700236	0.65365396	8.38431357	3.85378270	1.93277008	12.79882529
3698	36.97000000	-7.48789664	1.39821847	5.17257271	7.40245632	1.39342766	3.87162258	9.43239328	0.73928531	-0.34106404	8.65129157	-0.95437295	-0.38754488	10.33661081	-2.26963392	-0.06013805	7.78864914	0.79871323	0.11864104	4.98452337	0.58436842	8.49789528	6.28845382	1.23492225	14.13249015
3699	36.98000000	-7.71461282	1.52952979	5.20314085	7.52379414	1.44921858	3.83990672	9.29236345	0.86015541	-0.25914029	8.68976657	-1.12257642	-0.18126160	10.21485640	-3.07017084	-0.11487354	7.68024133	1.13260744	0.10172592	4.96215968	0.68748619	8.49747206	8.31212627	0.80450570	14.72471965
3700	36.99000000	-7.99771865	1.58194751	5.25248757	7.63278253	1.39698662	3.86389355	9.21858363	0.76445421	-0.12850890	8.70377973	-1.21044846	-0.06492521	10.24044954	-3.37350127	0.01184211	7.84697332	1.43853123	0.04868096	5.22793583	0.71974861	8.37924402	8.54347936	0.49690245	14.18063811
3701	37	-8.14286487	1.57552272	5.36673704	7.79500385	1.33377521	3.81300279	9.35925629	0.68389153	-0.06420096	8.80061799	-1.33582520	-0.18291472	10.63935991	-3.21470660	0.22988488	8.23995806	1.66699460	0.05721231	5.50504762	0.71137538	8.31407118	7.94880527	-0.16791423	13.51460697
3702	37.01000000	-8.22318104	1.56605088	5.45804934	8.02392443	1.34656365	3.74432668	9.55296824	0.71405559	-0.02399800	8.85081931	-1.36451533	-0.09610349	11.16796181	-2.85235354	0.58713498	8.66341860	1.80512691	0.00653468	5.15578912	0.93018287	8.44728791	8.21718366	-1.02458038	12.91895785
3703	37.02000000	-8.45956819	1.54016302	5.53180015	8.18500225	1.42352185	3.64687419	9.63979446	0.97313573	-0.09409297	8.86028135	-1.31249833	-0.10459922	11.46880187	-2.62633826	0.93968801	9.05668121	1.43703051	0.00050183	5.16633296	0.94478749	8.47832905	8.63542257	-0.72839173	12.73810329
3704	37.03000000	-8.67757321	1.53941852	5.64375284	8.25125089	1.37981753	3.49687132	9.63750621	1.25438234	-0.20007342	9.01655400	-1.16164771	-0.25885879	11.41116990	-2.70437509	1.16740215	9.35361325	0.99129886	0.07922729	5.45383735	0.88277370	8.34148763	8.67150585	0.44168727	12.85175185
3705	37.04000000	-8.85062158	1.49743645	5.75104084	8.47344705	1.52740073	3.35096208	9.54510730	1.44459651	-0.17949906	9.16710156	-1.01706013	-0.19004721	11.20343039	-2.93230175	1.24533303	9.52202016	0.91824223	0.02643933	5.49876643	0.95823662	8.26617765	8.57615267	0.96135132	12.71155304
3706	37.05000000	-8.96185063	1.43059136	5.87784269	8.65458560	1.52755288	3.24582842	9.52647044	1.73598339	-0.26038966	9.14690463	-0.91721971	0.00165911	10.96022785	-3.11583644	1.39081752	9.80414526	0.58688643	-0.06679641	5.19711919	1.03677610	8.50352686	8.60871260	1.21186623	12.41128015
3707	37.06000000	-9.05510507	1.38417534	5.96222712	8.78746918	1.37750951	3.14413503	9.64643712	2.09999066	-0.21818057	9.18344424	-0.73382674	0.17401423	10.70868405	-3.25679469	1.63201681	10.13024232	0.16573378	-0.26849964	5.22593680	0.95647141	8.45197908	8.31066468	1.72957009	12.13198146
3708	37.07000000	-9.11621302	1.31274677	6.04786028	9.00222013	1.69570682	3.01908434	9.72691673	2.27765667	-0.35461815	9.29568533	-0.50066803	0.35029813	10.60094138	-3.47715528	1.82565778	10.24308596	-0.06102328	-0.58762822	5.11223557	0.96085840	8.52662316	7.86989086	2.09373841	11.72461099
3709	37.08000000	-9.07559019	1.19817357	6.07448351	9.11860307	1.72480941	2.93557880	9.85107473	2.17858355	-0.47899216	9.40915970	-0.25519144	0.38721681	10.49979054	-3.64030353	1.91485821	10.18169285	-0.20433347	-0.86301524	5.19371281	0.95821228	8.48634039	7.53078434	2.11445967	11.39509770
3710	37.09000000	-9.05106664	1.10709981	6.11503678	9.28074060	1.78730088	2.87306946	9.87686987	2.07957663	-0.42104418	9.54717572	-0.06231750	0.23498282	10.26514516	-3.71747156	1.82301004	10.02022340	0.06124183	-1.03904546	5.23317042	0.94524194	8.52027393	7.71575122	2.40723105	11.57302180
3711	37.10000000	-9.02786015	1.10179134	6.17652797	9.28886465	1.98093897	2.79467981	9.92505170	2.07146404	-0.32033981	9.65889147	0.15321529	-0.01541467	9.84950962	-3.65076437	1.64769502	9.86639941	0.39936130	-0.94257889	5.27146542	0.97337382	8.45311146	9.04303038	2.71615750	12.30860754
3712	37.11000000	-8.96890272	1.08167761	6.23242130	9.31297686	2.07273351	2.73233199	9.98945268	2.07242815	-0.24644954	9.69189584	0.46383457	-0.16105135	9.49707238	-3.50496799	1.46186654	9.53035199	0.68522221	-0.67474232	5.14346542	1.08918963	8.55786185	10.63381692	2.90375086	12.76525105
3713	37.12000000	-8.93238980	1.13956681	6.26916899	9.35336966	2.16916484	2.70106450	10.06689025	1.99292574	-0.25475421	9.58268330	0.66801738	-0.18780659	9.47853155	-3.38182245	1.24555508	9.14582077	0.95493906	-0.41161287	5.26565651	1.05206769	8.47557453	10.15858481	3.07803313	12.22924654
3714	37.13000000	-8.85470644	1.20788198	6.27364387	9.41580414	2.22927368	2.67571329	10.09210164	1.67089331	-0.13758033	9.52628869	0.84495642	-0.18972808	9.67116067	-3.27358370	0.91385463	8.88274455	1.13629257	-0.29577449	5.49520661	1.02900145	8.35685547	8.62173579	2.69464546	11.27711755
3715	37.14000000	-8.77658459	1.28212075	6.26279267	9.38962999	2.28768603	2.61272961	10.07939238	1.27442676	0.12037734	9.45683332	0.96962095	-0.18898372	9.83737339	-3.16258331	0.61768264	8.77643766	1.32706089	-0.29689478	5.07094049	1.08110434	8.66259089	8.45642129	1.99322224	10.59126937
3716	37.15000000	-8.76952449	1.32564642	6.32796878	9.33037850	2.27455953	2.48890014	10.08687414	0.88269850	0.31006299	9.48676842	1.03168505	-0.14812813	9.80625713	-3.08377080	0.62406448	8.74747512	1.63555390	-0.29746575	4.92441609	1.08042354	8.69005303	8.89333481	1.96290173	10.51885777
3717	37.16000000	-8.73760651	1.38760653	6.32223527	9.19810022	2.30941746	2.39784312	9.98932041	0.56629221	0.39736416	9.44451341	0.95630315	-0.11794377	9.59932493	-3.09840402	0.80158577	8.62732743	1.93870539	-0.24191497	5.20634125	1.02135971	8.48314945	8.89051601	2.43077858	10.38517384
3718	37.17000000	-8.68617499	1.41510740	6.27373665	9.13849974	2.18132176	2.29613340	9.84753305	0.37259876	0.41174181	9.28415551	0.83705579	-0.05114888	9.50617596	-3.21389300	0.95652035	8.62059987	2.24168254	-0.08778484	5.39881359	0.97243481	8.36635758	8.32517807	2.55339227	9.99831388
3719	37.18000000	-8.66548824	1.40416051	6.27109084	9.08088286	1.95179345	2.19579504	9.68272038	0.22785431	0.22359419	9.23382793	0.63444653	-0.02343723	9.52551361	-3.34605452	0.98691749	8.71138110	2.57576731	0.20581535	4.98842123	0.96188084	8.56424240	7.85169282	2.26730437	9.48775121
3720	37.19000000	-8.70948755	1.33728901	6.24101530	8.94517614	2.08144004	2.06504731	9.67538531	0.25670696	0.03255384	9.43967630	0.44295797	-0.02015782	9.40206955	-3.43010187	1.01719897	8.77827785	2.91263836	0.48839230	5.02496884	0.76364457	8.59154864	7.95103253	2.25142337	9.30660694
3721	37.20000000	-8.75776670	1.31974126	6.22849592	8.94745708	2.02689429	1.95286135	9.74442404	0.25796948	-0.18032596	9.63375061	0.14317209	0.09120015	9.02084719	-3.44920215	1.14354980	8.76685242	3.23886061	0.70068697	5.17672467	0.77011957	8.54378458	8.14632418	2.54570587	9.14752444
